<?xml version="1.0" encoding="iso-8859-1"?>
<!-- Generator: Adobe Illustrator 17.1.0, SVG Export Plug-In . SVG Version: 6.00 Build 0)  -->
<!DOCTYPE svg PUBLIC "-//W3C//DTD SVG 1.1//EN" "http://www.w3.org/Graphics/SVG/1.1/DTD/svg11.dtd">
<svg version="1.1" id="Capa_1" xmlns="http://www.w3.org/2000/svg" xmlns:xlink="http://www.w3.org/1999/xlink" x="0px" y="0px"
	 viewBox="0 0 293 293" style="enable-background:new 0 0 293 293;" xml:space="preserve">
<g>
	<path d="M271.5,25c0-13.807-11.193-25-25-25h-200c-13.807,0-25,11.193-25,25v243c0,13.807,11.193,25,25,25h200
		c13.807,0,25-11.193,25-25V25z M53.011,20.816c8.951,0,16.208,7.257,16.208,16.208s-7.257,16.208-16.208,16.208
		c-8.952,0-16.208-7.257-16.208-16.208S44.059,20.816,53.011,20.816z M53.011,278.496c-8.952,0-16.208-7.257-16.208-16.208
		c0-8.951,7.257-16.208,16.208-16.208c8.951,0,16.208,7.257,16.208,16.208C69.219,271.239,61.963,278.496,53.011,278.496z
		 M163.624,193.807l3.574-30.99c0.266-2.298-0.328-4.393-1.672-5.899c-2.088-2.344-5.626-2.813-8.777-1.035l-49.005,27.652
		c-22.588-13.885-37.656-38.818-37.656-67.276c0-43.587,35.334-78.922,78.922-78.922s78.922,35.335,78.922,78.922
		C227.931,154.85,200.225,186.951,163.624,193.807z M240.655,278.496c-8.952,0-16.208-7.257-16.208-16.208
		c0-8.951,7.257-16.208,16.208-16.208s16.208,7.257,16.208,16.208C256.864,271.239,249.607,278.496,240.655,278.496z
		 M240.655,53.232c-8.952,0-16.208-7.257-16.208-16.208s7.257-16.208,16.208-16.208s16.208,7.257,16.208,16.208
		S249.607,53.232,240.655,53.232z"/>
	<circle cx="149.01" cy="116.258" r="28.452"/>
</g>
<g>
</g>
<g>
</g>
<g>
</g>
<g>
</g>
<g>
</g>
<g>
</g>
<g>
</g>
<g>
</g>
<g>
</g>
<g>
</g>
<g>
</g>
<g>
</g>
<g>
</g>
<g>
</g>
<g>
</g>
</svg>
